HIERARCHY
ROOT Hips
{
	OFFSET 0.000000 0.000000 0.000000
	CHANNELS 6 Xposition Yposition Zposition Zrotation Yrotation Xrotation 
	JOINT LHipJoint
	{
		OFFSET 0.000000 0.000000 0.000000
		CHANNELS 3 Zrotation Yrotation Xrotation
		JOINT LeftUpLeg
		{
			OFFSET 1.363060 -1.794630 0.839290
			CHANNELS 3 Zrotation Yrotation Xrotation
			JOINT LeftLeg
			{
				OFFSET 2.448110 -6.726130 0.000000
				CHANNELS 3 Zrotation Yrotation Xrotation
				JOINT LeftFoot
				{
					OFFSET 2.562200 -7.039590 0.000000
					CHANNELS 3 Zrotation Yrotation Xrotation
					JOINT LeftToeBase
					{
						OFFSET 0.157640 -0.433110 2.322550
						CHANNELS 3 Zrotation Yrotation Xrotation
						End Site
						{
							OFFSET 0.000000 0.000000 0.000000
						}
					}
				}
			}
		}
	}
	JOINT RHipJoint
	{
		OFFSET 0.000000 0.000000 0.000000
		CHANNELS 3 Zrotation Yrotation Xrotation
		JOINT RightUpLeg
		{
			OFFSET -1.305520 -1.794630 0.839290
			CHANNELS 3 Zrotation Yrotation Xrotation
			JOINT RightLeg
			{
				OFFSET -2.542530 -6.985550 0.000000
				CHANNELS 3 Zrotation Yrotation Xrotation
				JOINT RightFoot
				{
					OFFSET -2.568260 -7.056230 0.000000
					CHANNELS 3 Zrotation Yrotation Xrotation
					JOINT RightToeBase
					{
						OFFSET -0.164730 -0.452590 2.363150
						CHANNELS 3 Zrotation Yrotation Xrotation
						End Site
						{
							OFFSET 0.000000 0.000000 0.000000
						}
					}
				}
			}
		}
	}
	JOINT LowerBack
	{
		OFFSET 0.000000 0.000000 0.000000
		CHANNELS 3 Zrotation Yrotation Xrotation
		JOINT Spine
		{
			OFFSET 0.028270 2.035590 -0.193380
			CHANNELS 3 Zrotation Yrotation Xrotation
			JOINT Spine1
			{
				OFFSET 0.056720 2.048850 -0.042750
				CHANNELS 3 Zrotation Yrotation Xrotation
				JOINT Neck
				{
					OFFSET 0.000000 0.000000 0.000000
					CHANNELS 3 Zrotation Yrotation Xrotation
					JOINT Neck1
					{
						OFFSET -0.054170 1.746240 0.172020
						CHANNELS 3 Zrotation Yrotation Xrotation
						JOINT Head
						{
							OFFSET 0.104070 1.761360 -0.123970
							CHANNELS 3 Zrotation Yrotation Xrotation
							End Site
							{
								OFFSET 0.000000 0.000000 0.000000
							}
						}
					}
				}
				JOINT LeftShoulder
				{
					OFFSET 0.000000 0.000000 0.000000
					CHANNELS 3 Zrotation Yrotation Xrotation
					JOINT LeftArm
					{
						OFFSET 3.362410 1.200890 -0.311210
						CHANNELS 3 Zrotation Yrotation Xrotation
						JOINT LeftForeArm
						{
							OFFSET 4.983000 -0.000000 -0.000000
							CHANNELS 3 Zrotation Yrotation Xrotation
							JOINT LeftHand
							{
								OFFSET 3.483560 -0.000000 -0.000000
								CHANNELS 3 Zrotation Yrotation Xrotation
								JOINT LeftFingerBase
								{
									OFFSET 0.000000 0.000000 0.000000
									CHANNELS 3 Zrotation Yrotation Xrotation
									JOINT LeftHandIndex1
									{
										OFFSET 0.715260 -0.000000 -0.000000
										CHANNELS 3 Zrotation Yrotation Xrotation
										End Site
										{
											OFFSET 0.000000 0.000000 0.000000
										}
									}
								}
								JOINT LThumb
								{
									OFFSET 0.000000 0.000000 0.000000
									CHANNELS 3 Zrotation Yrotation Xrotation
									End Site
									{
										OFFSET 0.000000 0.000000 0.000000
									}
								}
							}
						}
					}
				}
				JOINT RightShoulder
				{
					OFFSET 0.000000 0.000000 0.000000
					CHANNELS 3 Zrotation Yrotation Xrotation
					JOINT RightArm
					{
						OFFSET -3.136600 1.374050 -0.404650
						CHANNELS 3 Zrotation Yrotation Xrotation
						JOINT RightForeArm
						{
							OFFSET -5.241900 -0.000000 -0.000000
							CHANNELS 3 Zrotation Yrotation Xrotation
							JOINT RightHand
							{
								OFFSET -3.444170 -0.000000 -0.000000
								CHANNELS 3 Zrotation Yrotation Xrotation
								JOINT RightFingerBase
								{
									OFFSET 0.000000 0.000000 0.000000
									CHANNELS 3 Zrotation Yrotation Xrotation
									JOINT RightHandIndex1
									{
										OFFSET -0.622530 -0.000000 -0.000000
										CHANNELS 3 Zrotation Yrotation Xrotation
										End Site
										{
											OFFSET 0.000000 0.000000 0.000000
										}
									}
								}
								JOINT RThumb
								{
									OFFSET 0.000000 0.000000 0.000000
									CHANNELS 3 Zrotation Yrotation Xrotation
									End Site
									{
										OFFSET 0.000000 0.000000 0.000000
									}
								}
							}
						}
					}
				}
			}
		}
	}
}
MOTION
Frames: 6
Frame Time: 0.008333
5.282125 17.947513 8.206475 -4.693210 -3.909691 1.965085 -2.913704 3.600273 2.046653 -8.303609 -11.301960 -26.304629 -1.619684 5.885817 17.927268 1.026142 2.283339 21.977736 0.085400 -1.885000 -5.188000 3.091154 -5.342484 6.853240 23.795037 8.607136 5.573851 -2.307307 -8.171721 31.289234 0.740154 -3.719473 8.622422 -0.103300 2.072500 -5.706100 2.857176 2.084122 4.880047 2.477095 3.075044 2.455607 -0.755494 1.566374 -6.485307 -5.503445 -4.731502 -16.177499 5.431247 -5.518862 11.980602 0.297700 -2.331300 7.676900 -7.244308 2.677055 -1.417504 -82.313658 9.377462 20.723898 12.063312 -20.923109 -2.466707 -0.875017 -0.921774 -0.683855 26.692159 14.675086 7.982800 -7.125000 0.000000 0.000000 -0.077400 47.433700 -0.004600 11.354212 -1.400713 -2.304144 72.617150 6.699549 17.905970 -14.555341 27.810917 -4.554391 1.099941 -0.335780 -2.000837 -18.418447 20.892217 -7.281900 7.125000 0.000000 0.000000 5.794200 -7.762100 4.984700 
5.302114 17.938931 8.418790 -4.404536 -3.614893 1.888522 -2.888266 3.600955 2.106200 -9.022732 -10.989249 -26.343120 -1.521729 6.116239 18.738409 1.157098 1.704327 22.214288 0.144000 -2.445600 -6.738800 3.031197 -5.297269 6.764919 23.512598 8.174395 4.725943 -2.805536 -8.745848 33.183743 0.837328 -4.279664 11.539305 -0.072000 1.731100 -4.763100 2.630040 2.066824 4.901473 2.337217 3.035495 2.299938 -0.759178 1.538745 -6.647824 -5.454026 -4.638159 -15.574453 5.482059 -5.476932 11.753043 0.316900 -2.317600 7.503200 -7.242543 2.656550 -1.404552 -82.147948 9.311242 20.442391 11.883037 -20.664227 -2.393056 -0.862377 -0.974232 -0.428211 26.281476 16.135900 8.569600 -7.125000 0.000000 0.000000 -0.728900 49.034400 -0.072500 11.371786 -1.444661 -2.335840 72.826568 5.974300 17.381772 -14.374436 27.593386 -4.454231 1.124862 -0.382635 -1.684052 -18.768964 21.662217 -7.697600 7.125000 0.000000 0.000000 5.617000 -6.875300 4.928600 
5.319681 17.969219 8.642109 -4.044843 -3.534835 1.894618 -2.833244 3.652701 2.232271 -9.900604 -10.365635 -26.213287 -1.345404 6.443569 19.830265 1.032029 1.437587 20.421787 0.117400 -2.208600 -6.082600 2.956715 -5.267980 6.655175 23.040057 7.828301 3.747052 -3.307690 -9.315230 35.039806 0.829189 -4.720627 14.479730 -0.045600 1.377400 -3.787900 2.221469 2.086143 4.674686 2.250169 3.024960 2.235254 -0.603342 1.529330 -6.604269 -5.416468 -4.671784 -15.620724 5.419593 -5.522172 12.058111 0.289200 -2.329600 7.606900 -7.257973 2.657858 -1.398309 -82.062770 9.189593 20.307280 11.723091 -20.431505 -2.327817 -0.861663 -1.016669 -0.870378 26.353842 17.019758 9.037200 -7.125000 0.000000 0.000000 -0.813200 50.051900 -0.101300 11.389972 -1.457643 -2.341236 72.920341 5.585103 16.928241 -14.006615 27.116793 -4.254556 1.153659 -0.447327 -0.946304 -19.282259 22.484737 -8.215700 7.125000 0.000000 0.000000 5.346300 -5.897200 4.790100 
5.342397 17.982646 8.862400 -4.004134 -3.446332 1.752443 -2.768457 3.701756 2.347639 -10.377344 -9.908493 -26.017537 -1.178097 6.745419 20.829876 1.025732 1.052377 19.405133 0.085800 -1.889200 -5.199600 2.874895 -5.222576 6.539330 22.944331 7.376563 2.892887 -3.850358 -9.862707 36.948592 0.780403 -5.108966 16.978945 -0.013900 0.761300 -2.092300 2.196700 2.056990 4.654713 2.288617 2.993998 2.201151 -0.549373 1.502601 -6.635566 -5.463752 -4.721726 -15.724824 5.338896 -5.558624 12.338040 0.268000 -2.344900 7.715200 -7.268702 2.663805 -1.389963 -82.133971 9.022381 20.087585 11.587667 -20.223323 -2.273465 -0.871107 -1.028801 -1.205031 26.601466 17.182077 9.218300 -7.125000 0.000000 0.000000 -0.581400 50.280200 -0.075700 11.397007 -1.466530 -2.360834 72.957061 5.004102 16.802686 -13.872005 26.960560 -4.186800 1.169895 -0.444860 -0.973591 -19.470165 22.460273 -8.294000 7.125000 0.000000 0.000000 5.216300 -5.895200 4.672800 
5.369453 18.000617 9.077440 -4.048690 -3.373947 1.586942 -2.708904 3.760540 2.452778 -10.655417 -9.773115 -25.712815 -0.999978 7.038163 21.826132 1.053016 0.619303 18.617917 0.020300 -0.920900 -2.531100 2.800209 -5.175120 6.415007 22.944195 7.062779 2.027851 -4.422226 -10.401367 38.852346 0.688449 -5.575986 19.687633 -0.001200 -0.223500 0.614100 2.370138 2.043050 4.623317 2.296886 3.000242 2.195448 -0.631226 1.490599 -6.610748 -5.467550 -4.746735 -15.678709 5.283790 -5.591685 12.560911 0.251000 -2.357300 7.780200 -7.261688 2.669947 -1.387824 -82.089083 9.171969 20.273511 11.623180 -20.264465 -2.292338 -0.876263 -0.946612 -2.292996 26.870194 14.583174 8.004600 -7.125000 0.000000 0.000000 0.133800 47.359500 0.007800 11.390760 -1.486707 -2.380821 73.195121 4.409512 16.183498 -13.853595 26.955147 -4.190124 1.159618 -0.439180 -0.816256 -19.181446 22.311788 -8.113900 7.125000 0.000000 0.000000 5.389000 -6.101900 4.807500 
5.402164 18.011722 9.289351 -3.712953 -3.150251 1.565511 -2.702634 3.805141 2.557873 -11.370471 -9.610797 -25.402849 -0.910354 7.166657 22.465333 1.203350 -0.273627 17.927866 0.010700 -0.669300 -1.839400 2.736060 -5.129385 6.291122 22.429134 6.620788 0.805124 -4.986841 -10.945848 40.776863 0.424935 -5.662683 22.473600 -0.051400 -1.463100 4.023900 2.218794 1.938112 4.472623 2.212001 2.851890 2.122849 -0.597065 1.407187 -6.600903 -5.728448 -4.754342 -15.615463 5.494683 -5.566534 12.811759 0.366200 -2.330300 7.861500 -7.268733 2.685109 -1.379628 -82.184511 9.327407 20.136370 11.326850 -19.776890 -2.191673 -0.926091 -0.728941 -3.957492 27.604296 8.224773 4.814900 -7.125000 0.000000 0.000000 1.464900 40.080500 -0.177700 11.402534 -1.495504 -2.391777 73.232966 3.979997 15.890144 -13.661545 26.720683 -4.105904 1.148888 -0.438678 -0.790514 -18.721933 22.195293 -7.876000 7.125000 0.000000 0.000000 5.674000 -6.291700 5.043400 
